<svg aria-hidden="true" style="position: absolute; width: 0; height: 0; overflow: hidden;" version="1.1" xmlns="http://www.w3.org/2000/svg" xmlns:xlink="http://www.w3.org/1999/xlink">
<defs>
<symbol id="icon-arrow" viewBox="0 0 32 32">
<path stroke-linejoin="round" stroke-linecap="round" stroke-miterlimit="4" stroke-width="2.6667" d="M6.333 25.667l19.334-19.334M25.667 6.333h-18M25.667 6.333v18"></path>
</symbol>
<symbol id="icon-arrow-down" viewBox="0 0 32 32">
<path stroke-linejoin="miter" stroke-linecap="round" stroke-miterlimit="4" stroke-width="2.6667" d="M24 12l-8 8-8-8"></path>
</symbol>
<symbol id="icon-arrow-left" viewBox="0 0 32 32">
<path stroke-linejoin="round" stroke-linecap="round" stroke-miterlimit="4" stroke-width="2.6667" d="M26.667 16h-21.334M13.333 24l-8-8 8-8"></path>
</symbol>
<symbol id="icon-arrow-rigth" viewBox="0 0 32 32">
<path stroke-linejoin="round" stroke-linecap="round" stroke-miterlimit="4" stroke-width="2.6667" d="M5.333 16h21.334M18.667 8l8 8-8 8"></path>
</symbol>
<symbol id="icon-arrow-up" viewBox="0 0 32 32">
<path stroke-linejoin="miter" stroke-linecap="round" stroke-miterlimit="4" stroke-width="2.6667" d="M24 20l-8-8-8 8"></path>
</symbol>
<symbol id="icon-brush-01" viewBox="0 0 32 32">
<path stroke-linejoin="round" stroke-linecap="round" stroke-miterlimit="4" stroke-width="2.6667" d="M17.037 20.001l-5.037-5.037M2.667 29.333c2.667 0 6.144 0.456 7.967-1.367s1.822-4.777 0-6.6c-1.822-1.822-4.777-1.822-6.6 0s0 5.3-1.367 7.967zM10.667 21.332c-0.655-0.655-0.983-0.983-1.168-1.326-0.202-0.366-0.32-0.803-0.32-1.267 0-0.5 0.138-0.968 0.377-1.368l-0.007 0.012c0.198-0.336 0.538-0.651 1.218-1.28l13.158-12.183c1.159-1.073 2.959-1.038 4.075 0.078s1.151 2.917 0.078 4.075l-12.183 13.158c-0.63 0.68-0.944 1.020-1.28 1.218-0.388 0.233-0.856 0.371-1.356 0.371-0.464 0-0.901-0.119-1.281-0.327l0.014 0.007c-0.343-0.185-0.671-0.513-1.326-1.168z"></path>
</symbol>
<symbol id="icon-icon-geo" viewBox="0 0 32 32">
<path stroke-linejoin="round" stroke-linecap="round" stroke-miterlimit="4" stroke-width="1.3333" d="M20 14c0 1.061-0.421 2.078-1.172 2.828s-1.768 1.172-2.828 1.172c-1.061 0-2.078-0.421-2.828-1.172s-1.172-1.768-1.172-2.828c0-1.061 0.421-2.078 1.172-2.828s1.768-1.172 2.828-1.172c1.061 0 2.078 0.421 2.828 1.172s1.172 1.768 1.172 2.828v0z"></path>
<path stroke-linejoin="round" stroke-linecap="round" stroke-miterlimit="4" stroke-width="1.3333" d="M26 14c0 9.523-10 15-10 15s-10-5.477-10-15c0-2.652 1.054-5.196 2.929-7.071s4.419-2.929 7.071-2.929c2.652 0 5.196 1.054 7.071 2.929s2.929 4.419 2.929 7.071v0z"></path>
</symbol>
<symbol id="icon-hero-arrow" viewBox="0 0 60 32">
<path d="M2 14c-1.105 0-2 0.895-2 2s0.895 2 2 2v-4zM59.414 17.414c0.781-0.781 0.781-2.047 0-2.828l-12.728-12.728c-0.781-0.781-2.047-0.781-2.828 0s-0.781 2.047 0 2.828l11.314 11.314-11.314 11.314c-0.781 0.781-0.781 2.047 0 2.828s2.047 0.781 2.828 0l12.728-12.728zM2 18h56v-4h-56v4z"></path>
</symbol>
<symbol id="icon-hourglass" viewBox="0 0 32 32">
<path stroke-linejoin="round" stroke-linecap="round" stroke-miterlimit="4" stroke-width="2.6667" d="M24.217 2.667h-16.434c-0.617 0-1.117 0.5-1.117 1.117 0 3.7 1.5 7.050 3.925 9.475l1.626 1.626c0.161 0.161 0.242 0.242 0.3 0.32 0.352 0.473 0.352 1.121 0 1.594-0.058 0.077-0.139 0.158-0.3 0.32l-1.626 1.626c-2.425 2.425-3.925 5.775-3.925 9.475 0 0 0 0 0 0v0c0 0.617 0.5 1.117 1.117 1.117h16.434c0.617 0 1.117-0.5 1.117-1.117 0 0 0-0 0-0 0-3.7-1.5-7.050-3.925-9.475l-1.626-1.626c-0.161-0.161-0.242-0.242-0.3-0.32-0.353-0.473-0.353-1.121 0-1.594 0.058-0.077 0.139-0.158 0.3-0.32l1.626-1.626c2.425-2.425 3.925-5.775 3.925-9.475v0c0-0.617-0.5-1.117-1.117-1.117z"></path>
</symbol>
<symbol id="icon-mail" viewBox="0 0 32 32">
<path stroke-linejoin="round" stroke-linecap="round" stroke-miterlimit="4" stroke-width="1.3333" d="M29 9v14c-0 0.828-0.336 1.578-0.879 2.121v0c-0.543 0.543-1.293 0.879-2.121 0.879h-20c-0.828-0-1.578-0.336-2.121-0.879v0c-0.543-0.543-0.879-1.293-0.879-2.121v0-14M29 9c-0-0.828-0.336-1.578-0.879-2.121v0c-0.543-0.543-1.293-0.879-2.121-0.879h-20c-1.657 0-3 1.343-3 3v0M29 9v0.324c0 0 0 0 0 0 0 1.075-0.565 2.017-1.414 2.547l-0.013 0.007-10 6.153c-0.447 0.28-0.991 0.446-1.573 0.446s-1.126-0.166-1.586-0.453l0.013 0.007-10-6.152c-0.862-0.537-1.427-1.48-1.427-2.554 0-0 0-0 0-0v0-0.325"></path>
</symbol>
<symbol id="icon-menu" viewBox="0 0 32 32">
<path d="M5.336 23.034v-1.333h21.341v1.333h-21.341zM5.336 16.672v-1.333h21.341v1.333h-21.341zM5.336 10.31v-1.333h21.341v1.333h-21.341z"></path>
</symbol>
<symbol id="icon-message" viewBox="0 0 32 32">
<path stroke-linejoin="round" stroke-linecap="round" stroke-miterlimit="4" stroke-width="2.6667" d="M8.126 14.972c-0.080-0.491-0.126-1.058-0.126-1.635 0-0.001 0-0.002 0-0.004v0c0-5.891 4.807-10.667 10.737-10.667s10.737 4.776 10.737 10.667c0 1.331-0.245 2.605-0.693 3.779-0.093 0.244-0.14 0.366-0.161 0.461s-0.029 0.161-0.031 0.257c-0.002 0.097 0.011 0.205 0.037 0.42l0.537 4.36c0.058 0.472 0.087 0.708 0.009 0.88-0.070 0.151-0.19 0.268-0.339 0.333l-0.004 0.002c-0.173 0.075-0.409 0.040-0.879-0.029l-4.247-0.623c-0.222-0.033-0.333-0.049-0.434-0.048-0.1 0.001-0.169 0.008-0.267 0.028s-0.225 0.068-0.477 0.163c-1.178 0.441-2.454 0.683-3.787 0.683-0.001 0-0.002 0-0.003 0-0.578 0-1.145-0.045-1.698-0.131l0.061 0.008M10.176 29.334c3.953 0 7.158-3.283 7.158-7.333s-3.205-7.333-7.158-7.333c-3.953 0-7.158 3.283-7.158 7.333 0 0.814 0.13 1.597 0.369 2.329 0.101 0.309 0.152 0.464 0.168 0.57 0.017 0.11 0.020 0.172 0.014 0.284-0.006 0.107-0.033 0.227-0.086 0.469l-0.815 3.682 3.993-0.545c0.218-0.030 0.327-0.045 0.422-0.044 0.1 0.001 0.153 0.006 0.252 0.026 0.093 0.019 0.232 0.067 0.51 0.165 0.731 0.258 1.516 0.398 2.332 0.398z"></path>
</symbol>
<symbol id="icon-phone" viewBox="0 0 32 32">
<path stroke-linejoin="round" stroke-linecap="round" stroke-miterlimit="4" stroke-width="1.3333" d="M3 9c0 11.045 8.955 20 20 20h3c0.828-0 1.578-0.336 2.121-0.879v0c0.543-0.543 0.879-1.293 0.879-2.121v0-1.829c0-0.688-0.468-1.288-1.136-1.455l-5.897-1.475c-0.109-0.028-0.235-0.045-0.364-0.045-0.489 0-0.924 0.234-1.198 0.597l-0.003 0.004-1.293 1.724c-0.376 0.501-1.025 0.723-1.613 0.507-4.43-1.661-7.863-5.094-9.488-9.413l-0.036-0.111c-0.216-0.588 0.005-1.237 0.507-1.613l1.724-1.293c0.484-0.361 0.703-0.979 0.556-1.564l-1.475-5.897c-0.169-0.657-0.756-1.136-1.455-1.136h-1.829c-1.657 0-3 1.343-3 3v0 3z"></path>
</symbol>
<symbol id="icon-success-filled" viewBox="0 0 32 32">
<path d="M16.006 2.001c7.735 0 14.005 6.27 14.005 14.005s-6.27 14.005-14.005 14.005v0c-7.735 0-14.005-6.27-14.005-14.005s6.27-14.005 14.005-14.005v0zM14.261 18.769l-3.111-3.113c-0.217-0.217-0.518-0.352-0.849-0.352-0.663 0-1.201 0.538-1.201 1.201 0 0.332 0.134 0.632 0.352 0.849l3.961 3.961c0.217 0.218 0.517 0.354 0.849 0.354s0.632-0.135 0.849-0.354l8.203-8.205c0.222-0.218 0.359-0.521 0.359-0.856 0-0.663-0.537-1.2-1.2-1.2-0.335 0-0.637 0.137-0.855 0.358l-7.357 7.357z"></path>
</symbol>
<symbol id="icon-user" viewBox="0 0 32 32">
<path stroke-linejoin="round" stroke-linecap="round" stroke-miterlimit="4" stroke-width="2.6667" d="M26.667 28c0-1.861 0-2.791-0.23-3.548-0.517-1.705-1.851-3.039-3.556-3.556-0.757-0.23-1.687-0.23-3.548-0.23h-6.667c-1.861 0-2.791 0-3.548 0.23-1.705 0.517-3.038 1.851-3.556 3.556-0.23 0.757-0.23 1.687-0.23 3.548M16 16c3.314 0 6-2.686 6-6s-2.686-6-6-6-6 2.686-6 6 2.686 6 6 6z"></path>
</symbol>
<symbol id="icon-x" viewBox="0 0 32 32">
<path stroke-linejoin="round" stroke-linecap="round" stroke-miterlimit="4" stroke-width="2" d="M24.009 8.003l-16.006 16.006M8.003 8.003l16.006 16.006"></path>
</symbol>
</defs>
</svg>
